<svg width="39" height="39" viewBox="0 0 39 39" fill="none" xmlns="http://www.w3.org/2000/svg">
<path d="M24.0174 34.5312H14.9824V24.8625C14.9824 23.9687 15.7137 23.2375 16.6074 23.2375H22.3924C23.2862 23.2375 24.0174 23.9687 24.0174 24.8625V34.5312V34.5312Z" stroke="#727272" stroke-width="3" stroke-linecap="round" stroke-linejoin="round"/>
<path d="M34.5312 18.5088V29.4125C34.5312 32.24 32.3537 34.5313 29.6562 34.5313H9.34375C6.64625 34.5313 4.46875 32.24 4.46875 29.4125V18.5088C4.46875 16.9813 5.1025 15.5513 6.22375 14.5763L16.38 5.65501C18.1837 4.06251 20.8163 4.06251 22.62 5.65501L32.7763 14.5763C33.8975 15.5513 34.5312 16.9813 34.5312 18.5088Z" stroke="#727272" stroke-width="3" stroke-linecap="round" stroke-linejoin="round"/>
</svg>
