<svg width="39" height="39" viewBox="0 0 39 39" fill="none" xmlns="http://www.w3.org/2000/svg">
<path d="M34.5312 14.17C34.5312 16.055 33.8162 17.9562 32.37 19.4025L29.965 21.8075L19.6137 32.1587C19.565 32.2075 19.5487 32.2237 19.5 32.2562C19.4513 32.2237 19.435 32.2075 19.3863 32.1587L6.63 19.4025C5.18375 17.9562 4.46875 16.0712 4.46875 14.17C4.46875 12.2687 5.18375 10.3675 6.63 8.92123C9.5225 6.04498 14.2025 6.04498 17.095 8.92123L19.4837 11.3262L21.8888 8.92123C24.7813 6.04498 29.445 6.04498 32.3375 8.92123C33.8163 10.3675 34.5312 12.2525 34.5312 14.17Z" stroke="#727272" stroke-width="3" stroke-linecap="round" stroke-linejoin="round"/>
</svg>
