<svg width="30" height="30" viewBox="0 0 30 30" fill="none" xmlns="http://www.w3.org/2000/svg">
<path fill-rule="evenodd" clip-rule="evenodd" d="M16.614 20.6346C15.0101 21.5442 13.1527 22.0642 11.1729 22.0642C5.11233 22.0642 0.199463 17.1925 0.199463 11.1833C0.199463 5.17405 5.11244 0.302368 11.1729 0.302368C17.2335 0.302368 22.1464 5.1739 22.1464 11.1833C22.1464 13.2612 21.5591 15.2029 20.5401 16.8544C20.5792 16.889 20.6178 16.9252 20.6557 16.9628L28.252 24.495C29.3235 25.5575 29.3241 27.28 28.2524 28.3425C27.1811 29.4048 25.4451 29.4059 24.3722 28.3421L16.7759 20.8099C16.7185 20.753 16.6646 20.6946 16.6141 20.6349L16.614 20.6346ZM11.1729 19.344C15.7183 19.344 19.4033 15.6903 19.4033 11.1831C19.4033 6.67606 15.7185 3.02213 11.1729 3.02213C6.62758 3.02213 2.94257 6.67586 2.94257 11.1831C2.94257 15.6903 6.62738 19.344 11.1729 19.344Z" fill="#727272"/>
</svg>
