<svg width="39" height="39" viewBox="0 0 39 39" fill="none" xmlns="http://www.w3.org/2000/svg">
<path d="M19.5 23.6763C21.8065 23.6763 23.6763 21.8066 23.6763 19.5001C23.6763 17.1936 21.8065 15.3238 19.5 15.3238C17.1935 15.3238 15.3237 17.1936 15.3237 19.5001C15.3237 21.8066 17.1935 23.6763 19.5 23.6763Z" stroke="#727272" stroke-width="3" stroke-linecap="round" stroke-linejoin="round"/>
<path fill-rule="evenodd" clip-rule="evenodd" d="M33.3449 13.4387L31.6711 10.5462C30.9724 9.34375 29.4449 8.9375 28.2424 9.63625L27.4136 10.1075C25.7399 11.0663 23.6599 9.86375 23.6599 7.93V6.97125C23.6599 5.59 22.5386 4.46875 21.1574 4.46875H17.8099C16.4286 4.46875 15.3074 5.59 15.3074 6.97125V7.93C15.3074 9.86375 13.2274 11.0663 11.5536 10.1075L10.7249 9.63625C9.5224 8.9375 7.99488 9.36 7.29613 10.5462L5.62238 13.4387C4.92363 14.6412 5.34613 16.1687 6.53238 16.8675L7.36114 17.3387C9.03489 18.2975 9.03489 20.7187 7.36114 21.6775L6.53238 22.1487C5.32988 22.8475 4.92363 24.375 5.62238 25.5775L7.29613 28.47C7.99488 29.6725 9.5224 30.0788 10.7249 29.38L11.5536 28.9088C13.2274 27.95 15.3074 29.1525 15.3074 31.0862V32.045C15.3074 33.4263 16.4286 34.5475 17.8099 34.5475H21.1574C22.5386 34.5475 23.6599 33.4263 23.6599 32.045V31.0862C23.6599 29.1525 25.7399 27.95 27.4136 28.9088L28.2424 29.38C29.4449 30.0788 30.9724 29.6562 31.6711 28.47L33.3449 25.5775C34.0436 24.375 33.6211 22.8475 32.4349 22.1487L31.6062 21.6775C29.9324 20.7187 29.9324 18.2975 31.6062 17.3387L32.4349 16.8675C33.6374 16.1687 34.0436 14.625 33.3449 13.4387Z" stroke="#727272" stroke-width="3" stroke-linecap="round" stroke-linejoin="round"/>
</svg>
