<svg width="25" height="24" viewBox="0 0 25 24" fill="none" xmlns="http://www.w3.org/2000/svg">
<path d="M1.88812 21.893C1.90114 23.0482 2.82563 23.9869 3.97796 24H9.83087V11.0039H1.88794L1.88812 21.893Z" fill="#727272"/>
<path d="M11.1328 11.0034H13.8672V23.9995H11.1328V11.0034Z" fill="#727272"/>
<path d="M4.62275 6.5667C4.98734 6.82268 5.4496 6.88832 5.86627 6.73079L8.88065 5.63462C8.05379 4.26937 8.05379 2.54968 8.88065 1.18442L5.85979 0.0882523C5.72307 0.0357424 5.57333 0.00948738 5.43009 0.00948738C4.67485 -0.00364011 4.05639 0.600227 4.03687 1.3616V5.46392C4.04338 5.90369 4.25822 6.31722 4.62281 6.56663L4.62275 6.5667Z" fill="#727272"/>
<path d="M19.1669 6.73053C19.3101 6.78304 19.4663 6.80929 19.6226 6.80929C20.3648 6.80929 20.9637 6.20546 20.9637 5.45717V1.35486C20.9637 1.19733 20.9377 1.04636 20.8856 0.895398C20.6317 0.193085 19.8635 -0.174485 19.1669 0.0815233L16.1265 1.19077C16.9468 2.54949 16.9468 4.26264 16.1265 5.62129L19.1669 6.73053Z" fill="#727272"/>
<path d="M9.78527 6.69758L6.30214 7.96436C6.02219 8.06282 5.72922 8.12189 5.42975 8.12189C3.95837 8.13502 2.74747 6.94699 2.73443 5.45703V4.30835H1.39978C0.631554 4.30835 0.00654768 4.92533 0 5.69989V8.29911C0.00651078 9.03425 0.572922 9.63808 1.29561 9.69065C1.31514 9.69065 1.33467 9.69721 1.3542 9.69721H1.39978H9.83081V6.73697C9.83081 6.71728 9.79825 6.71072 9.78523 6.69759L9.78527 6.69758Z" fill="#727272"/>
<path d="M11.1328 7.45913V9.69083H13.8672V7.44604C13.4766 7.60357 12.9688 7.68234 12.4805 7.68234C12.0248 7.68234 11.5691 7.60358 11.1328 7.45917V7.45913Z" fill="#727272"/>
<path d="M23.6003 4.30848H22.2656V5.45716C22.2656 5.76565 22.2135 6.06759 22.1094 6.35637C21.6146 7.74131 20.1041 8.46331 18.7239 7.97103L15.2148 6.69765C15.2017 6.71078 15.1887 6.73703 15.1757 6.73703H15.1692V9.69074H23.6002C23.6328 9.69074 23.6849 9.68417 23.7304 9.68417C24.4466 9.61853 24.9935 9.01468 25 8.29263V5.69341C24.9935 4.92545 24.3685 4.30847 23.6002 4.30847L23.6003 4.30848Z" fill="#727272"/>
<path d="M15.1694 23.9999H21.0613C22.2007 23.9999 23.1121 23.0416 23.1121 21.893V11.0039H15.1692L15.1694 23.9999Z" fill="#727272"/>
<path d="M14.6032 1.34158L14.5447 1.2825C13.3923 0.127283 11.5368 0.133824 10.391 1.29563C9.24514 2.45744 9.25163 4.32807 10.404 5.48328L10.4105 5.48985C10.5407 5.62769 10.6905 5.7524 10.8467 5.85742C11.7126 6.44816 12.8259 6.53351 13.7764 6.08059C14.0889 5.92962 14.3689 5.72615 14.6098 5.47675C15.7166 4.32808 15.7166 2.49023 14.6033 1.34161L14.6032 1.34158Z" fill="#727272"/>
</svg>
